<?xml version="1.0" encoding="iso-8859-1"?>
<!-- Generator: Adobe Illustrator 16.0.0, SVG Export Plug-In . SVG Version: 6.00 Build 0)  -->
<!DOCTYPE svg PUBLIC "-//W3C//DTD SVG 1.1//EN" "http://www.w3.org/Graphics/SVG/1.1/DTD/svg11.dtd">
<svg version="1.1" id="Capa_1" xmlns="http://www.w3.org/2000/svg" xmlns:xlink="http://www.w3.org/1999/xlink" x="0px" y="0px"
	 width="45.568px" height="45.568px" viewBox="0 0 45.568 45.568" style="enable-background:new 0 0 45.568 45.568;"
	 xml:space="preserve">
<g>
	<g>
		<g>
			<path d="M28.656,16.27c-3.093,0-5.822,1.584-7.422,3.982c0.821,0.271,1.55,0.712,2.151,1.283
				c1.161-1.668,3.088-2.765,5.271-2.765c3.539,0,6.418,2.879,6.418,6.419c0,0.689,0.561,1.25,1.25,1.25s1.25-0.561,1.25-1.25
				C37.574,20.271,33.574,16.27,28.656,16.27z"/>
			<path d="M28.656,12.222c-5.597,0-10.362,3.57-12.175,8.547c1.697-1.026,3.061-0.813,3.122-0.81
				c1.812-3.125,5.188-5.237,9.053-5.237c5.771,0,10.467,4.695,10.467,10.466c0,0.689,0.56,1.25,1.25,1.25
				c0.688,0,1.25-0.561,1.25-1.25C41.623,18.039,35.807,12.222,28.656,12.222z"/>
			<path d="M28.656,8.275c-7.318,0-13.546,4.68-15.897,11.197c0.195,0.031,0.392,0.055,0.585,0.099
				c0.626,0.142,1.231,0.358,1.809,0.625c2.037-5.491,7.313-9.421,13.503-9.421c7.946,0,14.412,6.465,14.412,14.413
				c0,0.689,0.561,1.25,1.25,1.25s1.25-0.561,1.25-1.25C45.568,15.862,37.982,8.275,28.656,8.275z"/>
			<path d="M25.707,25.994c-0.282-0.063-0.564-0.095-0.843-0.095c-0.604,0-1.19,0.146-1.711,0.412
				c0.308-1.947-0.941-3.826-2.893-4.268c-0.281-0.064-0.562-0.094-0.839-0.094c-1.207,0-2.331,0.583-3.034,1.533
				c-0.879-0.938-2.138-1.655-3.486-1.961c-0.5-0.113-1.002-0.168-1.498-0.168c-3.062,0-5.882,2.082-6.584,5.174
				c0,0.005-0.002,0.009-0.003,0.014c-0.153-0.021-0.31-0.032-0.469-0.032c-1.739,0-3.787,1.295-4.244,3.311
				c-0.519,2.29,0.966,4.579,3.255,5.1c0.317,0.072,0.636,0.106,0.949,0.106c1.292,0,2.508-0.586,3.305-1.556
				c0.702,0.502,1.526,0.881,2.423,1.084c0.497,0.112,0.994,0.168,1.483,0.168c1.494,0,2.918-0.504,4.062-1.381
				c0.344,1.84,1.747,3.392,3.688,3.832c0.36,0.081,0.721,0.12,1.076,0.12c2.209,0,4.206-1.521,4.714-3.769
				c0.005-0.019,0.007-0.036,0.011-0.054c1.648-0.09,3.107-1.252,3.49-2.941C29.025,28.488,27.747,26.457,25.707,25.994z"/>
		</g>
	</g>
</g>
<g>
</g>
<g>
</g>
<g>
</g>
<g>
</g>
<g>
</g>
<g>
</g>
<g>
</g>
<g>
</g>
<g>
</g>
<g>
</g>
<g>
</g>
<g>
</g>
<g>
</g>
<g>
</g>
<g>
</g>
</svg>
