<?xml version='1.0' encoding='iso-8859-1'?>
<!DOCTYPE svg PUBLIC '-//W3C//DTD SVG 1.1//EN' 'http://www.w3.org/Graphics/SVG/1.1/DTD/svg11.dtd'>
<svg version="1.1" xmlns="http://www.w3.org/2000/svg" viewBox="0 0 512 512" xmlns:xlink="http://www.w3.org/1999/xlink" enable-background="new 0 0 512 512">
  <g>
    <path d="m447.465,149.383c-5.41-65.711-60.356-117.383-127.465-117.383-48.047,0-89.859,26.508-111.75,65.664-5.246-1.082-10.68-1.664-16.25-1.664-33.766,0-62.5,20.984-74.242,50.57-7-1.625-14.262-2.57-21.758-2.57-53.02,0-96,42.98-96,96s42.98,96 96,96h35.691c14.567-64.105 71.793-112 140.309-112s125.742,47.895 140.309,112h3.691c53.02,0 96-42.98 96-96 0-41.982-26.992-77.578-64.535-90.617zm-63.465,26.621c-8.836,0-16-7.164-16-16 0-26.469-21.531-48-48-48-8.836,0-16-7.164-16-16s7.164-16 16-16c44.109,0 80,35.891 80,80 0,8.836-7.164,16-16,16z"/>
    <path d="m272,256c-61.855,0-112,50.145-112,112s50.145,112 112,112 112-50.145 112-112-50.145-112-112-112zm0,176c-8.836,0-16-7.164-16-16s7.164-16 16-16 16,7.164 16,16-7.164,16-16,16zm16-63.996c0,8.836-7.164,16-16,16s-16-7.164-16-16v-48c0-8.836 7.164-16 16-16s16,7.164 16,16v48z"/>
  </g>
</svg>
