<?xml version="1.0" encoding="iso-8859-1"?>
<!-- Generator: Adobe Illustrator 18.1.1, SVG Export Plug-In . SVG Version: 6.00 Build 0)  -->
<svg version="1.1" id="Capa_1" xmlns="http://www.w3.org/2000/svg" xmlns:xlink="http://www.w3.org/1999/xlink" x="0px" y="0px"
	 viewBox="0 0 17.372 17.372" style="enable-background:new 0 0 17.372 17.372;" xml:space="preserve">
<g>
	<g>
		<g>
			<path style="fill:#030104;" d="M3.136,8.558C3.038,8.307,2.96,8.046,2.905,7.78C2.896,7.739,2.867,7.706,2.827,7.693
				C2.788,7.679,2.744,7.688,2.712,7.715L0.786,9.359C0.748,9.392,0.734,9.445,0.752,9.492C0.77,9.537,0.814,9.568,0.863,9.568
				c0.001,0,0.003,0,0.004,0l2.53-0.102c0.041-0.002,0.079-0.025,0.099-0.062c0.02-0.037,0.019-0.081-0.002-0.117
				C3.353,9.052,3.233,8.808,3.136,8.558z"/>
		</g>
		<g>
			<path style="fill:#030104;" d="M11.068,4.466c-0.02,0.037-0.019,0.081,0.002,0.116c0.138,0.229,0.259,0.475,0.359,0.729
				c0.079,0.206,0.141,0.415,0.19,0.624c0.208-0.057,0.421-0.1,0.636-0.123l1.522-1.301c0.039-0.032,0.052-0.085,0.034-0.133
				c-0.019-0.047-0.068-0.073-0.114-0.075l-2.531,0.101C11.125,4.406,11.088,4.429,11.068,4.466z"/>
		</g>
		<g>
			<path style="fill:#030104;" d="M9.387,3.004c0.232,0.129,0.46,0.28,0.675,0.451c0.213,0.171,0.411,0.359,0.589,0.559
				c0.022,0.025,0.055,0.04,0.089,0.04c0.008,0,0.015,0,0.022-0.002c0.04-0.008,0.074-0.037,0.089-0.077l0.845-2.388
				c0.017-0.047,0.002-0.1-0.038-0.132c-0.039-0.031-0.094-0.034-0.137-0.007L9.38,2.801C9.346,2.823,9.324,2.863,9.325,2.905
				C9.328,2.946,9.35,2.984,9.387,3.004z"/>
		</g>
		<g>
			<path style="fill:#030104;" d="M7.139,2.479L7.24,2.478c0.235,0,0.474,0.019,0.71,0.055c0.267,0.04,0.532,0.104,0.79,0.188
				c0.012,0.004,0.024,0.007,0.036,0.007c0.029,0,0.057-0.01,0.078-0.03c0.031-0.027,0.047-0.069,0.039-0.11L8.431,0.097
				c-0.009-0.05-0.048-0.088-0.098-0.095c-0.051-0.009-0.1,0.017-0.122,0.062L7.033,2.306c-0.02,0.037-0.018,0.082,0.004,0.117
				C7.059,2.459,7.094,2.473,7.139,2.479z"/>
		</g>
		<g>
			<path style="fill:#030104;" d="M4.814,3.149C4.832,3.16,4.851,3.163,4.871,3.163c0.021,0,0.042-0.005,0.061-0.017
				c0.234-0.141,0.479-0.261,0.729-0.358c0.254-0.1,0.515-0.177,0.776-0.23C6.478,2.549,6.512,2.519,6.525,2.48
				c0.014-0.039,0.006-0.083-0.021-0.115L4.86,0.438C4.827,0.399,4.773,0.386,4.726,0.405C4.679,0.423,4.65,0.47,4.651,0.52
				l0.102,2.53C4.755,3.092,4.777,3.129,4.814,3.149z"/>
		</g>
		<g>
			<path style="fill:#030104;" d="M3.149,4.837c0.021,0.034,0.06,0.056,0.1,0.056c0.001,0,0.002,0,0.003,0
				c0.042-0.002,0.08-0.025,0.101-0.062c0.129-0.235,0.281-0.462,0.449-0.675c0.176-0.217,0.364-0.415,0.56-0.588
				C4.393,3.54,4.408,3.498,4.4,3.457s-0.039-0.076-0.078-0.09L1.936,2.52C1.887,2.505,1.835,2.518,1.803,2.558
				c-0.031,0.04-0.034,0.094-0.007,0.137L3.149,4.837z"/>
		</g>
		<g>
			<path style="fill:#030104;" d="M2.708,7.198c0.022,0,0.043-0.006,0.063-0.018c0.036-0.021,0.057-0.061,0.056-0.102
				C2.822,6.805,2.84,6.533,2.88,6.268c0.042-0.271,0.105-0.537,0.189-0.79c0.014-0.04,0.005-0.083-0.023-0.114
				c-0.027-0.032-0.068-0.046-0.11-0.04l-2.49,0.461C0.395,5.793,0.357,5.833,0.349,5.883c-0.008,0.05,0.017,0.099,0.062,0.122
				l2.242,1.179C2.67,7.193,2.69,7.198,2.708,7.198z"/>
		</g>
		<g>
			<path style="fill:#030104;" d="M4.27,9.43L4.087,9.167C3.51,8.342,3.275,7.341,3.425,6.35c0.288-1.891,1.944-3.316,3.854-3.316
				c0.195,0,0.394,0.015,0.589,0.044c1.618,0.246,2.919,1.491,3.238,3.099l0.036,0.18l-0.163,0.082
				c-0.36,0.182-0.685,0.414-0.963,0.69L9.917,7.226L9.784,7.19C8.757,6.918,7.66,7.285,6.995,8.094L6.914,8.193L6.787,8.182
				C6.718,8.176,6.65,8.173,6.583,8.173c-0.82,0-1.59,0.368-2.111,1.009L4.27,9.43z M7.278,3.516c-1.673,0-3.124,1.25-3.376,2.907
				C3.786,7.19,3.934,7.964,4.319,8.632c0.627-0.63,1.474-0.986,2.385-0.939c0.759-0.854,1.939-1.25,3.071-1.001
				c0.246-0.229,0.521-0.428,0.819-0.595c-0.336-1.324-1.44-2.336-2.799-2.542C7.624,3.529,7.449,3.516,7.278,3.516z"/>
		</g>
		<g>
			<path style="fill:#030104;" d="M12.991,6.865c-1.064,0-2.083,0.423-2.836,1.17C9.909,7.97,9.658,7.937,9.406,7.937
				c-0.892,0-1.729,0.4-2.289,1.082c-0.077-0.006-0.151-0.01-0.226-0.01c-1.633,0-2.961,1.329-2.961,2.962
				c0,1.528,1.146,2.796,2.666,2.946l0.849,0.001c0.006,0,0.011,0.003,0.016,0.003h0.793c0.233,0,0.422-0.189,0.422-0.422v-0.054
				c0-0.233-0.188-0.423-0.422-0.423H7.461c0,0,0,0-0.001,0H6.665c-1.049-0.114-1.837-0.993-1.837-2.052
				c0-1.139,0.927-2.064,2.064-2.064c0.109,0,0.225,0.01,0.353,0.032L7.53,9.987l0.163-0.24c0.521-0.775,1.533-1.119,2.438-0.78
				l0.291,0.109l0.205-0.235c0.598-0.687,1.46-1.08,2.364-1.08c1.729,0,3.137,1.407,3.137,3.137c0,1.646-1.284,3.016-2.927,3.125
				h-0.372c-0.002,0-0.004-0.001-0.007-0.001h-0.158c-0.233,0-0.423,0.189-0.423,0.423v0.054c0,0.232,0.189,0.422,0.423,0.422h0.158
				c0.001,0,0.001,0,0.002,0h0.406l0.014-0.001c2.12-0.132,3.781-1.899,3.781-4.021C17.025,8.675,15.216,6.865,12.991,6.865z"/>
		</g>
		<g>
			<path style="fill:#030104;" d="M12.036,12.693l-0.888,0.484c-0.29,0.157-0.582,0.312-0.866,0.479
				c-0.056,0.032-0.111,0.067-0.167,0.1c0.128-0.352,0.261-0.7,0.381-1.055c0.208-0.612,0.4-1.231,0.565-1.861
				c-0.331,0.562-0.637,1.133-0.925,1.712c-0.289,0.578-0.567,1.161-0.831,1.75L8.98,15.025l0.731-0.36
				c0.297-0.146,0.586-0.306,0.876-0.463c0.007-0.003,0.013-0.007,0.019-0.011c-0.17,0.37-0.336,0.742-0.497,1.117
				c-0.284,0.677-0.56,1.358-0.789,2.063c0.431-0.604,0.814-1.23,1.189-1.862c0.37-0.635,0.727-1.275,1.063-1.925L12.036,12.693z"/>
		</g>
		<g>
			<path style="fill:#030104;" d="M7.583,16.679c0,0.383,0.277,0.693,0.619,0.693c0.343,0,0.619-0.311,0.619-0.693
				s-0.619-1.001-0.619-1.001S7.583,16.296,7.583,16.679z"/>
		</g>
		<g>
			<path style="fill:#030104;" d="M11.329,15.555c0,0.276,0.17,0.5,0.381,0.5s0.381-0.224,0.381-0.5s-0.381-0.723-0.381-0.723
				S11.329,15.278,11.329,15.555z"/>
		</g>
	</g>
</g>
<g>
</g>
<g>
</g>
<g>
</g>
<g>
</g>
<g>
</g>
<g>
</g>
<g>
</g>
<g>
</g>
<g>
</g>
<g>
</g>
<g>
</g>
<g>
</g>
<g>
</g>
<g>
</g>
<g>
</g>
</svg>
