<?xml version="1.0" encoding="iso-8859-1"?>
<!-- Generator: Adobe Illustrator 17.1.0, SVG Export Plug-In . SVG Version: 6.00 Build 0)  -->
<!DOCTYPE svg PUBLIC "-//W3C//DTD SVG 1.1//EN" "http://www.w3.org/Graphics/SVG/1.1/DTD/svg11.dtd">
<svg version="1.1" id="Capa_1" xmlns="http://www.w3.org/2000/svg" xmlns:xlink="http://www.w3.org/1999/xlink" x="0px" y="0px"
	 viewBox="0 0 127.635 127.635" style="enable-background:new 0 0 127.635 127.635;" xml:space="preserve">
<g>
	<path d="M53.199,58.48c5.884,0,10.67-4.787,10.67-10.671s-4.787-10.671-10.67-10.671c-5.884,0-10.671,4.787-10.671,10.671
		S47.315,58.48,53.199,58.48z"/>
	<path d="M95.339,25.175C95.311,18.877,92.603,13,87.714,8.626C83.566,4.92,78.29,2.647,72.42,2.031C71.855,0.806,70.63,0,69.228,0
		c-1.4,0-2.625,0.806-3.192,2.03c-5.872,0.616-11.149,2.889-15.297,6.597c-4.917,4.398-7.625,10.311-7.625,16.648
		c0,1.346,1.095,2.441,2.441,2.441h0.375c0.73,0,1.417-0.324,1.886-0.89c1.018-1.236,2.518-1.944,4.115-1.944
		c1.504,0,2.946,0.64,3.955,1.757c0.927,1.023,2.699,1.022,3.623-0.001c1.007-1.116,2.448-1.756,3.953-1.756
		c0.549,0,1.117,0.203,1.719,0.417c0.366,0.131,0.734,0.261,1.111,0.359c0.385,0.1,0.884,0.178,1.437,0.23v19.392
		c-0.225,0.139-0.436,0.298-0.61,0.499c-0.51,0.589-0.736,1.389-0.621,2.195l1.399,9.751c0.083,0.578-0.342,1.209-0.909,1.351
		l-7.498,1.868H44.958c-0.032,0-0.061,0.008-0.093,0.009l-2.094-0.007c-1.489,0-3.115,1.07-3.701,2.437l-6.485,15.103
		c-0.584,1.36-0.268,3.288,0.72,4.39l8.654,9.659v1.062v0.394v28.643c0,2.757,2.243,5,5,5h0.211c2.757,0,5-2.243,5-5V96.992h2.058
		v25.643c0,2.757,2.243,5,5,5h0.211c2.757,0,5-2.243,5-5V93.992v-0.394V69.208l9.161-3.311c1.497-0.541,2.457-2.193,2.185-3.762
		l-2.512-14.481c-0.227-1.306-1.28-2.366-2.544-2.689V25.905c0.505-0.045,1.034-0.123,1.476-0.257
		c0.295-0.09,0.587-0.195,0.877-0.299c0.666-0.24,1.295-0.466,1.911-0.466c1.503,0,2.944,0.64,3.954,1.756
		c0.924,1.023,2.699,1.021,3.622,0c1.01-1.117,2.451-1.757,3.955-1.757c1.598,0,3.098,0.708,4.115,1.944
		c0.466,0.565,1.153,0.89,1.885,0.89h0.379c1.346,0,2.441-1.095,2.441-2.441L95.339,25.175z M41.958,80.652l-0.667-0.819
		c-0.428-0.527-0.5-1.536-0.149-2.117l0.816-1.354V80.652z"/>
</g>
<g>
</g>
<g>
</g>
<g>
</g>
<g>
</g>
<g>
</g>
<g>
</g>
<g>
</g>
<g>
</g>
<g>
</g>
<g>
</g>
<g>
</g>
<g>
</g>
<g>
</g>
<g>
</g>
<g>
</g>
</svg>
